<mxfile host="65bd71144e" modified="2020-11-20T17:00:56.150Z" agent="5.0 (Windows NT 10.0; Win64; x64) AppleWebKit/537.36 (KHTML, like Gecko) Code/1.51.1 Chrome/83.0.4103.122 Electron/9.3.3 Safari/537.36" etag="_Dsqafrtnfls9XOdgon2" version="13.6.5">
    <diagram id="wJhR4MJhuPZITx-nDL5n" name="Component">
        <mxGraphModel dx="3012" dy="1818" grid="1" gridSize="10" guides="1" tooltips="1" connect="1" arrows="1" fold="1" page="1" pageScale="1" pageWidth="1100" pageHeight="850" math="0" shadow="0">
            <root>
                <mxCell id="0"/>
                <mxCell id="1" parent="0"/>
                <mxCell id="2" value="" style="rounded=0;whiteSpace=wrap;html=1;fillColor=none;dashed=1;strokeColor=#FFFFFF;" parent="1" vertex="1">
                    <mxGeometry x="-120" width="1340" height="790" as="geometry"/>
                </mxCell>
                <mxCell id="3" value="&lt;p style=&quot;line-height: 70%&quot;&gt;&lt;b&gt;&lt;font style=&quot;font-size: 14px&quot;&gt;Flask Application&lt;br&gt;&lt;/font&gt;&lt;/b&gt;&lt;font style=&quot;font-size: 10px ; line-height: 80%&quot;&gt;[Software Container]&lt;/font&gt;&lt;/p&gt;" style="rounded=0;whiteSpace=wrap;html=1;fontSize=18;fontColor=#ffffff;fillColor=none;strokeColor=none;align=left;" parent="1" vertex="1">
                    <mxGeometry x="-110" y="740" width="260" height="50" as="geometry"/>
                </mxCell>
                <mxCell id="9" value="&lt;b&gt;&lt;font style=&quot;font-size: 23px&quot;&gt;WSGI Server&lt;/font&gt;&lt;/b&gt;&lt;br&gt;&lt;font style=&quot;font-size: 13px&quot;&gt;[Container: Gunicorn]&lt;/font&gt;&lt;br&gt;&lt;br&gt;Handles incoming and outgoing HTTP requests." style="rounded=0;whiteSpace=wrap;html=1;fontSize=18;fillColor=#1ba1e2;strokeColor=#006EAF;fontColor=#ffffff;" parent="1" vertex="1">
                    <mxGeometry x="400" y="-260" width="300" height="170" as="geometry"/>
                </mxCell>
                <mxCell id="10" value="&lt;b&gt;&lt;font style=&quot;font-size: 23px&quot;&gt;Trello&lt;/font&gt;&lt;/b&gt;&lt;br&gt;&lt;font style=&quot;font-size: 13px&quot;&gt;[Container: Third-Party Web App]&lt;/font&gt;&lt;br&gt;&lt;br&gt;Stores all task information, and manipulates data based on HTTPS requests from PPP Web App." style="rounded=0;whiteSpace=wrap;html=1;fontSize=18;fillColor=#1ba1e2;strokeColor=#006EAF;fontColor=#ffffff;" parent="1" vertex="1">
                    <mxGeometry x="890" y="-260" width="300" height="170" as="geometry"/>
                </mxCell>
                <mxCell id="15" value="&lt;b&gt;Routes requests using&lt;br&gt;&lt;/b&gt;&lt;font style=&quot;font-size: 10px&quot;&gt;[Python]&lt;/font&gt;" style="text;html=1;strokeColor=none;fillColor=none;align=center;verticalAlign=middle;whiteSpace=wrap;rounded=0;fontColor=#F0F0F0;" parent="1" vertex="1">
                    <mxGeometry x="405" y="-74" width="140" height="40" as="geometry"/>
                </mxCell>
                <mxCell id="16" value="" style="endArrow=none;html=1;fontSize=18;dashed=1;endFill=0;exitX=0.25;exitY=1;exitDx=0;exitDy=0;entryX=0.5;entryY=0;entryDx=0;entryDy=0;fontColor=#FCFCFC;strokeColor=#F0F0F0;" parent="1" source="9" target="15" edge="1">
                    <mxGeometry width="50" height="50" relative="1" as="geometry">
                        <mxPoint x="495" y="-105" as="sourcePoint"/>
                        <mxPoint x="559.9999999999998" y="-240" as="targetPoint"/>
                    </mxGeometry>
                </mxCell>
                <mxCell id="17" value="" style="endArrow=classic;html=1;fontSize=18;dashed=1;endFill=1;exitX=0.5;exitY=1;exitDx=0;exitDy=0;entryX=0.25;entryY=0;entryDx=0;entryDy=0;fontColor=#FCFCFC;strokeColor=#F0F0F0;" parent="1" source="15" target="21" edge="1">
                    <mxGeometry width="50" height="50" relative="1" as="geometry">
                        <mxPoint x="560" y="35" as="sourcePoint"/>
                        <mxPoint x="475" y="30" as="targetPoint"/>
                    </mxGeometry>
                </mxCell>
                <mxCell id="18" value="&lt;b&gt;Sends templated pages to&lt;br&gt;&lt;/b&gt;&lt;font style=&quot;font-size: 10px&quot;&gt;[Python]&lt;/font&gt;" style="text;html=1;strokeColor=none;fillColor=none;align=center;verticalAlign=middle;whiteSpace=wrap;rounded=0;fontColor=#F0F0F0;" parent="1" vertex="1">
                    <mxGeometry x="540" y="-71" width="170" height="40" as="geometry"/>
                </mxCell>
                <mxCell id="19" value="" style="endArrow=none;html=1;fontSize=18;dashed=1;endFill=0;exitX=0.75;exitY=1;exitDx=0;exitDy=0;entryX=0.5;entryY=0;entryDx=0;entryDy=0;startArrow=classic;startFill=1;fontColor=#FCFCFC;strokeColor=#F0F0F0;" parent="1" source="9" target="18" edge="1">
                    <mxGeometry width="50" height="50" relative="1" as="geometry">
                        <mxPoint x="630" y="-90" as="sourcePoint"/>
                        <mxPoint x="714.9999999999998" y="-240" as="targetPoint"/>
                    </mxGeometry>
                </mxCell>
                <mxCell id="20" value="" style="endArrow=none;html=1;fontSize=18;dashed=1;endFill=0;exitX=0.5;exitY=1;exitDx=0;exitDy=0;entryX=0.75;entryY=0;entryDx=0;entryDy=0;fontColor=#FCFCFC;strokeColor=#F0F0F0;" parent="1" source="18" target="21" edge="1">
                    <mxGeometry width="50" height="50" relative="1" as="geometry">
                        <mxPoint x="715" y="35" as="sourcePoint"/>
                        <mxPoint x="625" y="30" as="targetPoint"/>
                    </mxGeometry>
                </mxCell>
                <mxCell id="21" value="&lt;b&gt;&lt;font style=&quot;font-size: 23px&quot;&gt;Homepage Controller&lt;/font&gt;&lt;/b&gt;&lt;br&gt;&lt;font style=&quot;font-size: 13px&quot;&gt;[Component: Flask, Python]&lt;/font&gt;&lt;br&gt;&lt;br&gt;Converts paths in urls to pages, executes necessary python scripts to make requests to Trello and templates webpages" style="rounded=0;whiteSpace=wrap;html=1;fontSize=18;fillColor=#f0a30a;strokeColor=#BD7000;fontColor=#ffffff;" parent="1" vertex="1">
                    <mxGeometry x="400" y="300" width="300" height="170" as="geometry"/>
                </mxCell>
                <mxCell id="22" value="&lt;b&gt;&lt;font style=&quot;font-size: 23px&quot;&gt;Trello Helper Component&lt;/font&gt;&lt;/b&gt;&lt;br&gt;&lt;font style=&quot;font-size: 13px&quot;&gt;[Component: Python]&lt;/font&gt;&lt;br&gt;&lt;br&gt;Structures Trello API requests, such as Get Board, Add Card and Move Card To List." style="rounded=0;whiteSpace=wrap;html=1;fontSize=18;fillColor=#f0a30a;strokeColor=#BD7000;fontColor=#ffffff;" parent="1" vertex="1">
                    <mxGeometry x="890" y="300" width="300" height="170" as="geometry"/>
                </mxCell>
                <mxCell id="23" value="&lt;b&gt;&lt;font style=&quot;font-size: 23px&quot;&gt;API Caller Component&lt;/font&gt;&lt;/b&gt;&lt;br&gt;&lt;font style=&quot;font-size: 13px&quot;&gt;[Component: Python, 'requests' package]&lt;/font&gt;&lt;br&gt;&lt;br&gt;Adds on necessary authentication information to requests built by Trello Helper and executes them." style="rounded=0;whiteSpace=wrap;html=1;fontSize=18;fillColor=#f0a30a;strokeColor=#BD7000;fontColor=#ffffff;" parent="1" vertex="1">
                    <mxGeometry x="890" y="30" width="300" height="170" as="geometry"/>
                </mxCell>
                <mxCell id="25" value="" style="endArrow=classic;html=1;fontSize=18;dashed=1;endFill=1;exitX=0.5;exitY=0;exitDx=0;exitDy=0;entryX=0.5;entryY=1;entryDx=0;entryDy=0;fontColor=#FCFCFC;strokeColor=#F0F0F0;" parent="1" source="26" target="10" edge="1">
                    <mxGeometry width="50" height="50" relative="1" as="geometry">
                        <mxPoint x="485" y="250" as="sourcePoint"/>
                        <mxPoint x="485" y="210" as="targetPoint"/>
                    </mxGeometry>
                </mxCell>
                <mxCell id="26" value="&lt;b&gt;Structures requests using&lt;br&gt;&lt;/b&gt;&lt;font style=&quot;font-size: 10px&quot;&gt;[Python]&lt;/font&gt;" style="text;html=1;strokeColor=none;fillColor=none;align=center;verticalAlign=middle;whiteSpace=wrap;rounded=0;fontColor=#F0F0F0;" parent="1" vertex="1">
                    <mxGeometry x="955" y="-50" width="170" height="40" as="geometry"/>
                </mxCell>
                <mxCell id="28" value="" style="endArrow=none;html=1;fontSize=18;dashed=1;endFill=0;entryX=0.5;entryY=0;entryDx=0;entryDy=0;exitX=0.5;exitY=1;exitDx=0;exitDy=0;fontColor=#FCFCFC;strokeColor=#F0F0F0;" parent="1" source="26" target="23" edge="1">
                    <mxGeometry width="50" height="50" relative="1" as="geometry">
                        <mxPoint x="635" y="-21" as="sourcePoint"/>
                        <mxPoint x="635" y="40" as="targetPoint"/>
                    </mxGeometry>
                </mxCell>
                <mxCell id="29" value="" style="endArrow=classic;html=1;fontSize=18;dashed=1;endFill=1;exitX=0.5;exitY=0;exitDx=0;exitDy=0;entryX=0.5;entryY=1;entryDx=0;entryDy=0;fontColor=#FCFCFC;strokeColor=#F0F0F0;" parent="1" source="22" target="23" edge="1">
                    <mxGeometry width="50" height="50" relative="1" as="geometry">
                        <mxPoint x="485" y="250" as="sourcePoint"/>
                        <mxPoint x="485" y="210" as="targetPoint"/>
                    </mxGeometry>
                </mxCell>
                <mxCell id="31" value="" style="endArrow=classic;html=1;fontSize=18;dashed=1;endFill=1;exitX=1;exitY=0.5;exitDx=0;exitDy=0;entryX=0;entryY=0.227;entryDx=0;entryDy=0;fontColor=#FCFCFC;strokeColor=#F0F0F0;entryPerimeter=0;" parent="1" source="32" target="22" edge="1">
                    <mxGeometry width="50" height="50" relative="1" as="geometry">
                        <mxPoint x="740" y="190" as="sourcePoint"/>
                        <mxPoint x="740" y="150" as="targetPoint"/>
                    </mxGeometry>
                </mxCell>
                <mxCell id="32" value="&lt;b&gt;Makes calls to&lt;br&gt;&lt;/b&gt;&lt;font style=&quot;font-size: 10px&quot;&gt;[Python]&lt;/font&gt;" style="text;html=1;strokeColor=none;fillColor=none;align=center;verticalAlign=middle;whiteSpace=wrap;rounded=0;fontColor=#F0F0F0;" parent="1" vertex="1">
                    <mxGeometry x="745" y="320" width="100" height="40" as="geometry"/>
                </mxCell>
                <mxCell id="30" value="&lt;b&gt;Returns task/board info to&lt;br&gt;&lt;/b&gt;&lt;font style=&quot;font-size: 10px&quot;&gt;[Python]&lt;/font&gt;" style="text;html=1;strokeColor=none;fillColor=none;align=center;verticalAlign=middle;whiteSpace=wrap;rounded=0;fontColor=#F0F0F0;" parent="1" vertex="1">
                    <mxGeometry x="715" y="410" width="160" height="40" as="geometry"/>
                </mxCell>
                <mxCell id="33" value="" style="endArrow=none;html=1;fontSize=18;dashed=1;endFill=0;exitX=1;exitY=0.5;exitDx=0;exitDy=0;entryX=0.007;entryY=0.759;entryDx=0;entryDy=0;fontColor=#FCFCFC;strokeColor=#F0F0F0;entryPerimeter=0;" parent="1" source="30" target="22" edge="1">
                    <mxGeometry width="50" height="50" relative="1" as="geometry">
                        <mxPoint x="625" y="300" as="sourcePoint"/>
                        <mxPoint x="625" y="200" as="targetPoint"/>
                    </mxGeometry>
                </mxCell>
                <mxCell id="34" value="" style="endArrow=none;html=1;fontSize=18;dashed=1;endFill=0;exitX=0;exitY=0.5;exitDx=0;exitDy=0;entryX=0;entryY=0.5;entryDx=0;entryDy=0;fontColor=#FCFCFC;strokeColor=#F0F0F0;" parent="1" source="32" target="32" edge="1">
                    <mxGeometry width="50" height="50" relative="1" as="geometry">
                        <mxPoint x="635" y="310" as="sourcePoint"/>
                        <mxPoint x="635" y="280" as="targetPoint"/>
                    </mxGeometry>
                </mxCell>
                <mxCell id="35" value="&lt;b&gt;&lt;font style=&quot;font-size: 23px&quot;&gt;Template Engine&lt;/font&gt;&lt;/b&gt;&lt;br&gt;&lt;font style=&quot;font-size: 13px&quot;&gt;[Component: Jinja]&lt;/font&gt;&lt;br&gt;&lt;br&gt;Populates HTML templates with data" style="rounded=0;whiteSpace=wrap;html=1;fontSize=18;fillColor=#f0a30a;strokeColor=#BD7000;fontColor=#ffffff;" vertex="1" parent="1">
                    <mxGeometry x="-80" y="300" width="300" height="170" as="geometry"/>
                </mxCell>
                <mxCell id="36" value="&lt;b&gt;&lt;font style=&quot;font-size: 23px&quot;&gt;HTML Templates&lt;/font&gt;&lt;/b&gt;&lt;br&gt;&lt;font style=&quot;font-size: 13px&quot;&gt;[Component: HTML]&lt;/font&gt;&lt;br&gt;&lt;br&gt;HTML files containing the layout of the webpages. Jinja syntax to be handled by the templating engine" style="rounded=0;whiteSpace=wrap;html=1;fontSize=18;fillColor=#f0a30a;strokeColor=#BD7000;fontColor=#ffffff;" vertex="1" parent="1">
                    <mxGeometry x="-80" y="570" width="300" height="170" as="geometry"/>
                </mxCell>
                <mxCell id="37" value="&lt;b&gt;&lt;font style=&quot;font-size: 23px&quot;&gt;Data Models&lt;/font&gt;&lt;/b&gt;&lt;br&gt;&lt;font style=&quot;font-size: 13px&quot;&gt;[Component: Python, 'datetime' and 'typing' packages]&lt;/font&gt;&lt;br&gt;&lt;br&gt;Classes used to model Trello objects, e.g. Cards and Card Lists&amp;nbsp;" style="rounded=0;whiteSpace=wrap;html=1;fontSize=18;fillColor=#f0a30a;strokeColor=#BD7000;fontColor=#ffffff;" vertex="1" parent="1">
                    <mxGeometry x="400" y="570" width="300" height="170" as="geometry"/>
                </mxCell>
                <mxCell id="41" value="" style="endArrow=none;html=1;fontSize=18;dashed=1;endFill=0;exitX=0;exitY=0.5;exitDx=0;exitDy=0;entryX=0.999;entryY=0.234;entryDx=0;entryDy=0;fontColor=#FCFCFC;strokeColor=#F0F0F0;entryPerimeter=0;" edge="1" parent="1" source="32" target="21">
                    <mxGeometry width="50" height="50" relative="1" as="geometry">
                        <mxPoint x="1125" y="310" as="sourcePoint"/>
                        <mxPoint x="805" y="470" as="targetPoint"/>
                    </mxGeometry>
                </mxCell>
                <mxCell id="42" value="" style="endArrow=classic;html=1;fontSize=18;dashed=1;endFill=1;exitX=0;exitY=0.5;exitDx=0;exitDy=0;entryX=1;entryY=0.771;entryDx=0;entryDy=0;fontColor=#FCFCFC;strokeColor=#F0F0F0;entryPerimeter=0;" edge="1" parent="1" source="30" target="21">
                    <mxGeometry width="50" height="50" relative="1" as="geometry">
                        <mxPoint x="855" y="350" as="sourcePoint"/>
                        <mxPoint x="900" y="352.5" as="targetPoint"/>
                    </mxGeometry>
                </mxCell>
                <mxCell id="43" value="" style="endArrow=classic;html=1;fontSize=18;dashed=1;endFill=1;exitX=0.75;exitY=1;exitDx=0;exitDy=0;entryX=0.25;entryY=0;entryDx=0;entryDy=0;fontColor=#FCFCFC;strokeColor=#F0F0F0;" edge="1" parent="1" source="49" target="37">
                    <mxGeometry width="50" height="50" relative="1" as="geometry">
                        <mxPoint x="485" y="-24" as="sourcePoint"/>
                        <mxPoint x="485" y="310" as="targetPoint"/>
                    </mxGeometry>
                </mxCell>
                <mxCell id="44" value="" style="endArrow=classic;html=1;fontSize=18;dashed=1;endFill=1;exitX=0.5;exitY=1;exitDx=0;exitDy=0;entryX=0.5;entryY=0;entryDx=0;entryDy=0;fontColor=#FCFCFC;strokeColor=#F0F0F0;" edge="1" parent="1" source="55" target="36">
                    <mxGeometry width="50" height="50" relative="1" as="geometry">
                        <mxPoint x="155" y="480" as="sourcePoint"/>
                        <mxPoint x="485" y="580" as="targetPoint"/>
                    </mxGeometry>
                </mxCell>
                <mxCell id="45" value="" style="endArrow=classic;html=1;fontSize=18;dashed=1;endFill=1;exitX=0.5;exitY=1;exitDx=0;exitDy=0;entryX=0.5;entryY=0;entryDx=0;entryDy=0;fontColor=#FCFCFC;strokeColor=#F0F0F0;" edge="1" parent="1" source="48" target="37">
                    <mxGeometry width="50" height="50" relative="1" as="geometry">
                        <mxPoint x="590" y="480" as="sourcePoint"/>
                        <mxPoint x="590" y="580" as="targetPoint"/>
                    </mxGeometry>
                </mxCell>
                <mxCell id="46" value="" style="endArrow=classic;html=1;fontSize=18;dashed=1;endFill=1;exitX=0.25;exitY=1;exitDx=0;exitDy=0;entryX=0.75;entryY=0;entryDx=0;entryDy=0;fontColor=#FCFCFC;strokeColor=#F0F0F0;" edge="1" parent="1" source="47" target="37">
                    <mxGeometry width="50" height="50" relative="1" as="geometry">
                        <mxPoint x="560" y="480" as="sourcePoint"/>
                        <mxPoint x="560" y="580" as="targetPoint"/>
                    </mxGeometry>
                </mxCell>
                <mxCell id="47" value="&lt;b&gt;Formats data using&lt;br&gt;&lt;/b&gt;&lt;font style=&quot;font-size: 10px&quot;&gt;[Python]&lt;/font&gt;" style="text;html=1;strokeColor=none;fillColor=none;align=center;verticalAlign=middle;whiteSpace=wrap;rounded=0;fontColor=#F0F0F0;" vertex="1" parent="1">
                    <mxGeometry x="730" y="490" width="130" height="40" as="geometry"/>
                </mxCell>
                <mxCell id="48" value="&lt;b&gt;Formats data using&lt;br&gt;&lt;/b&gt;&lt;font style=&quot;font-size: 10px&quot;&gt;[Python]&lt;/font&gt;" style="text;html=1;strokeColor=none;fillColor=none;align=center;verticalAlign=middle;whiteSpace=wrap;rounded=0;fontColor=#F0F0F0;" vertex="1" parent="1">
                    <mxGeometry x="485" y="500" width="130" height="40" as="geometry"/>
                </mxCell>
                <mxCell id="49" value="&lt;b&gt;Formats data using&lt;br&gt;&lt;/b&gt;&lt;font style=&quot;font-size: 10px&quot;&gt;[Python]&lt;/font&gt;" style="text;html=1;strokeColor=none;fillColor=none;align=center;verticalAlign=middle;whiteSpace=wrap;rounded=0;fontColor=#F0F0F0;" vertex="1" parent="1">
                    <mxGeometry x="240" y="490" width="130" height="40" as="geometry"/>
                </mxCell>
                <mxCell id="50" value="" style="endArrow=none;html=1;fontSize=18;dashed=1;endFill=0;exitX=0.75;exitY=1;exitDx=0;exitDy=0;entryX=0;entryY=0.25;entryDx=0;entryDy=0;fontColor=#FCFCFC;strokeColor=#F0F0F0;" edge="1" parent="1" source="35" target="49">
                    <mxGeometry width="50" height="50" relative="1" as="geometry">
                        <mxPoint x="145" y="470" as="sourcePoint"/>
                        <mxPoint x="475" y="570" as="targetPoint"/>
                    </mxGeometry>
                </mxCell>
                <mxCell id="51" value="" style="endArrow=none;html=1;fontSize=18;dashed=1;endFill=0;entryX=1;entryY=0.25;entryDx=0;entryDy=0;fontColor=#FCFCFC;strokeColor=#F0F0F0;exitX=0.25;exitY=1;exitDx=0;exitDy=0;" edge="1" parent="1" source="22" target="47">
                    <mxGeometry width="50" height="50" relative="1" as="geometry">
                        <mxPoint x="960" y="470" as="sourcePoint"/>
                        <mxPoint x="250" y="510" as="targetPoint"/>
                    </mxGeometry>
                </mxCell>
                <mxCell id="52" value="&lt;b&gt;Generates Pages using&lt;br&gt;&lt;/b&gt;&lt;font style=&quot;font-size: 10px&quot;&gt;[Python]&lt;/font&gt;" style="text;html=1;strokeColor=none;fillColor=none;align=center;verticalAlign=middle;whiteSpace=wrap;rounded=0;fontColor=#F0F0F0;" vertex="1" parent="1">
                    <mxGeometry x="240" y="365" width="140" height="40" as="geometry"/>
                </mxCell>
                <mxCell id="53" value="" style="endArrow=none;html=1;fontSize=18;dashed=1;endFill=0;exitX=1;exitY=0.5;exitDx=0;exitDy=0;entryX=0;entryY=0.5;entryDx=0;entryDy=0;fontColor=#FCFCFC;strokeColor=#F0F0F0;" edge="1" parent="1" source="52" target="21">
                    <mxGeometry width="50" height="50" relative="1" as="geometry">
                        <mxPoint x="755" y="350" as="sourcePoint"/>
                        <mxPoint x="709.6999999999998" y="349.7800000000002" as="targetPoint"/>
                    </mxGeometry>
                </mxCell>
                <mxCell id="54" value="" style="endArrow=classic;html=1;fontSize=18;dashed=1;endFill=1;exitX=0;exitY=0.5;exitDx=0;exitDy=0;entryX=1;entryY=0.5;entryDx=0;entryDy=0;fontColor=#FCFCFC;strokeColor=#F0F0F0;" edge="1" parent="1" source="52" target="35">
                    <mxGeometry width="50" height="50" relative="1" as="geometry">
                        <mxPoint x="855" y="350" as="sourcePoint"/>
                        <mxPoint x="900" y="348.59000000000015" as="targetPoint"/>
                    </mxGeometry>
                </mxCell>
                <mxCell id="55" value="&lt;b&gt;Gets templates from&lt;br&gt;&lt;/b&gt;&lt;font style=&quot;font-size: 10px&quot;&gt;[Python]&lt;/font&gt;" style="text;html=1;strokeColor=none;fillColor=none;align=center;verticalAlign=middle;whiteSpace=wrap;rounded=0;fontColor=#F0F0F0;" vertex="1" parent="1">
                    <mxGeometry y="500" width="140" height="40" as="geometry"/>
                </mxCell>
                <mxCell id="56" value="" style="endArrow=none;html=1;fontSize=18;dashed=1;endFill=0;exitX=0.5;exitY=1;exitDx=0;exitDy=0;entryX=0.5;entryY=0;entryDx=0;entryDy=0;fontColor=#FCFCFC;strokeColor=#F0F0F0;" edge="1" parent="1" source="35" target="55">
                    <mxGeometry width="50" height="50" relative="1" as="geometry">
                        <mxPoint x="155" y="480" as="sourcePoint"/>
                        <mxPoint x="250" y="510" as="targetPoint"/>
                    </mxGeometry>
                </mxCell>
                <mxCell id="59" value="" style="endArrow=none;html=1;fontSize=18;dashed=1;endFill=0;entryX=0.5;entryY=0;entryDx=0;entryDy=0;fontColor=#FCFCFC;strokeColor=#F0F0F0;exitX=0.5;exitY=1;exitDx=0;exitDy=0;" edge="1" parent="1" source="21" target="48">
                    <mxGeometry width="50" height="50" relative="1" as="geometry">
                        <mxPoint x="975" y="480" as="sourcePoint"/>
                        <mxPoint x="870" y="510" as="targetPoint"/>
                    </mxGeometry>
                </mxCell>
            </root>
        </mxGraphModel>
    </diagram>
</mxfile>